<?xml version="1.0" encoding="UTF-8"?>
<svg id="Layer_2" data-name="Layer 2" xmlns="http://www.w3.org/2000/svg" viewBox="0 0 500 432.6">
  <defs>
    <style>
      .cls-1 {
        fill: none;
        stroke: #000;
        stroke-linecap: round;
        stroke-linejoin: round;
        stroke-width: .75px;
      }

      .cls-1, .cls-2, .cls-3 {
        opacity: .2;
      }

      .cls-2, .cls-4, .cls-5, .cls-6, .cls-7, .cls-8, .cls-9, .cls-10, .cls-11, .cls-12, .cls-13, .cls-14, .cls-15, .cls-16, .cls-17, .cls-18, .cls-19, .cls-20 {
        stroke-width: 0px;
      }

      .cls-2, .cls-3 {
        isolation: isolate;
      }

      .cls-21 {
        opacity: .5;
      }

      .cls-4 {
        opacity: .4;
      }

      .cls-22, .cls-14 {
        opacity: .6;
      }

      .cls-5 {
        fill: #e6e6e6;
      }

      .cls-7, .cls-23, .cls-20 {
        opacity: .3;
      }

      .cls-8 {
        fill: #e0e0e0;
      }

      .cls-9 {
        fill: #26382f;
      }

      .cls-10 {
        fill: #f5f5f5;
      }

      .cls-11 {
        fill: #f0f0f0;
      }

      .cls-12 {
        fill: #a23f69;
      }

      .cls-13, .cls-14, .cls-20 {
        fill: #fff;
      }

      .cls-15 {
        fill: #fafafa;
      }

      .cls-16 {
        fill: #b96474;
      }

      .cls-17 {
        fill: #0edbbd;
      }

      .cls-18 {
        fill: #961950;
      }

      .cls-19 {
        fill: #ebebeb;
      }
    </style>
  </defs>
  <g id="Background_complete" data-name="Background complete">
    <g>
      <path class="cls-10" d="M351.83,204.21h-28.87c-.75,0-1.36-.74-1.36-1.66v-6.98c0-.92.61-1.66,1.36-1.66h28.87c.75,0,1.36.74,1.36,1.66v6.98c0,.92-.61,1.66-1.36,1.66Z"/>
      <path class="cls-10" d="M388.24,203.82h-28.87c-.75,0-1.36-.74-1.36-1.66v-6.98c0-.92.61-1.66,1.36-1.66h28.87c.75,0,1.37.74,1.37,1.66v6.98c0,.92-.61,1.66-1.37,1.66Z"/>
      <path class="cls-10" d="M369.6,190.76h-28.87c-.75,0-1.37-.74-1.37-1.66v-6.98c0-.92.61-1.66,1.37-1.66h28.87c.75,0,1.37.74,1.37,1.66v6.98c0,.92-.61,1.66-1.37,1.66Z"/>
    </g>
    <g>
      <path class="cls-10" d="M408.31,291.47h-28.87c-.75,0-1.36-.74-1.36-1.66v-6.98c0-.92.61-1.66,1.36-1.66h28.87c.75,0,1.36.74,1.36,1.66v6.98c0,.92-.61,1.66-1.36,1.66Z"/>
      <path class="cls-10" d="M444.72,291.08h-28.87c-.75,0-1.36-.74-1.36-1.66v-6.98c0-.92.61-1.66,1.36-1.66h28.87c.75,0,1.37.74,1.37,1.66v6.98c0,.92-.61,1.66-1.37,1.66Z"/>
      <path class="cls-10" d="M426.08,278.02h-28.87c-.75,0-1.37-.74-1.37-1.66v-6.98c0-.92.61-1.66,1.37-1.66h28.87c.75,0,1.37.74,1.37,1.66v6.98c0,.92-.61,1.66-1.37,1.66Z"/>
    </g>
    <g>
      <path class="cls-11" d="M125,266.49h-28.87c-.75,0-1.37-.74-1.37-1.66v-6.98c0-.92.61-1.66,1.37-1.66h28.87c.75,0,1.37.74,1.37,1.66v6.98c0,.92-.61,1.66-1.37,1.66Z"/>
      <path class="cls-11" d="M125,292.03h-28.87c-.75,0-1.37-.74-1.37-1.66v-6.98c0-.92.61-1.66,1.37-1.66h28.87c.75,0,1.37.74,1.37,1.66v6.98c0,.92-.61,1.66-1.37,1.66Z"/>
      <path class="cls-11" d="M134.66,279.26h-28.87c-.75,0-1.36-.74-1.36-1.66v-6.98c0-.92.61-1.66,1.36-1.66h28.87c.75,0,1.36.74,1.36,1.66v6.98c0,.92-.61,1.66-1.36,1.66Z"/>
      <path class="cls-19" d="M101.58,279.26h-28.87c-.75,0-1.37-.74-1.37-1.66v-6.98c0-.92.61-1.66,1.37-1.66h28.87c.75,0,1.36.74,1.36,1.66v6.98c0,.92-.61,1.66-1.36,1.66Z"/>
    </g>
    <g>
      <path class="cls-11" d="M182.72,23.07h-28.87c-.75,0-1.37-.74-1.37-1.66v-6.98c0-.92.61-1.66,1.37-1.66h28.87c.75,0,1.37.74,1.37,1.66v6.98c0,.92-.61,1.66-1.37,1.66Z"/>
      <path class="cls-11" d="M192.38,10.3h-28.87c-.75,0-1.36-.74-1.36-1.66V1.66c0-.92.61-1.66,1.36-1.66h28.87c.75,0,1.36.74,1.36,1.66v6.98c0,.92-.61,1.66-1.36,1.66Z"/>
      <path class="cls-19" d="M159.3,10.3h-28.87c-.75,0-1.36-.74-1.36-1.66V1.66c0-.92.61-1.66,1.36-1.66h28.87c.75,0,1.36.74,1.36,1.66v6.98c0,.92-.61,1.66-1.36,1.66Z"/>
    </g>
    <g>
      <path class="cls-11" d="M440.06,115.3h-28.87c-.75,0-1.37-.74-1.37-1.66v-6.98c0-.92.61-1.66,1.37-1.66h28.87c.75,0,1.37.74,1.37,1.66v6.98c0,.92-.61,1.66-1.37,1.66Z"/>
      <path class="cls-11" d="M440.06,140.84h-28.87c-.75,0-1.37-.74-1.37-1.66v-6.98c0-.92.61-1.66,1.37-1.66h28.87c.75,0,1.37.74,1.37,1.66v6.98c0,.92-.61,1.66-1.37,1.66Z"/>
      <path class="cls-11" d="M449.72,128.07h-28.87c-.75,0-1.36-.74-1.36-1.66v-6.98c0-.92.61-1.66,1.36-1.66h28.87c.75,0,1.36.74,1.36,1.66v6.98c0,.92-.61,1.66-1.36,1.66Z"/>
      <path class="cls-19" d="M416.64,128.07h-28.87c-.75,0-1.36-.74-1.36-1.66v-6.98c0-.92.61-1.66,1.36-1.66h28.87c.75,0,1.36.74,1.36,1.66v6.98c0,.92-.61,1.66-1.36,1.66Z"/>
    </g>
    <g>
      <g>
        <path class="cls-8" d="M443.92,309.69h-180.75c-3.23,0-5.86-2.63-5.86-5.86V40.56c0-3.23,2.63-5.86,5.86-5.86h180.75c3.23,0,5.86,2.63,5.86,5.86v263.27c0,3.23-2.63,5.86-5.86,5.86ZM263.17,34.95c-3.09,0-5.61,2.52-5.61,5.61v263.27c0,3.09,2.52,5.61,5.61,5.61h180.75c3.09,0,5.61-2.52,5.61-5.61V40.56c0-3.09-2.52-5.61-5.61-5.61h-180.75Z"/>
        <path class="cls-8" d="M235.49,309.69H54.75c-3.23,0-5.86-2.63-5.86-5.86V40.56c0-3.23,2.63-5.86,5.86-5.86h180.75c3.23,0,5.86,2.63,5.86,5.86v263.27c0,3.23-2.63,5.86-5.86,5.86ZM54.75,34.95c-3.09,0-5.61,2.52-5.61,5.61v263.27c0,3.09,2.52,5.61,5.61,5.61h180.75c3.09,0,5.61-2.52,5.61-5.61V40.56c0-3.09-2.52-5.61-5.61-5.61H54.75Z"/>
      </g>
      <g>
        <rect class="cls-8" y="341.92" width="500" height=".25"/>
        <rect class="cls-8" x="51.67" y="356.18" width="16.06" height=".25"/>
        <rect class="cls-8" x="170.35" y="353.47" width="53.53" height=".25"/>
        <rect class="cls-8" x="68.73" y="365.47" width="36.25" height=".25"/>
        <rect class="cls-8" x="378.35" y="353.34" width="43.19" height=".25"/>
        <rect class="cls-8" x="430.45" y="353.34" width="6.33" height=".25"/>
        <rect class="cls-8" x="316.21" y="359.57" width="53.89" height=".25"/>
      </g>
    </g>
    <g>
      <path class="cls-10" d="M356.64,36.42h-28.87c-.75,0-1.36-.74-1.36-1.66v-6.98c0-.92.61-1.66,1.36-1.66h28.87c.75,0,1.36.74,1.36,1.66v6.98c0,.92-.61,1.66-1.36,1.66Z"/>
      <path class="cls-10" d="M393.04,36.03h-28.87c-.75,0-1.36-.74-1.36-1.66v-6.98c0-.92.61-1.66,1.36-1.66h28.87c.75,0,1.37.74,1.37,1.66v6.98c0,.92-.61,1.66-1.37,1.66Z"/>
      <path class="cls-10" d="M374.41,22.97h-28.87c-.75,0-1.37-.74-1.37-1.66v-6.98c0-.92.61-1.66,1.37-1.66h28.87c.75,0,1.37.74,1.37,1.66v6.98c0,.92-.61,1.66-1.37,1.66Z"/>
    </g>
    <g>
      <rect class="cls-11" x="51.01" y="31.27" width="196.45" height="167.54"/>
      <rect class="cls-8" x="247.45" y="31.27" width="1.59" height="167.54"/>
      <rect class="cls-15" x="58.95" y="40.55" width="180.56" height="148.99"/>
      <polygon class="cls-19" points="44.53 48.73 43.67 71.61 174.69 66.6 255.05 65.33 255.93 44.1 144.09 45.56 44.53 48.73"/>
      <polygon class="cls-19" points="44.29 101.22 43.93 124.12 174.97 123.03 255.27 119.36 255.68 98.1 143.91 102.92 44.29 101.22"/>
      <polygon class="cls-8" points="252.78 101.4 254.56 78.59 123.47 76.92 43.14 74.08 41.41 95.26 153.2 99.49 252.78 101.4"/>
      <polygon class="cls-8" points="251.85 186.45 253.3 163.61 122.21 164.01 41.86 162.45 40.43 183.64 152.25 186.11 251.85 186.45"/>
      <polygon class="cls-8" points="253.45 141.43 254.4 118.55 123.39 115.04 43.03 115.88 42.07 137.11 153.91 136.23 253.45 141.43"/>
      <polygon class="cls-19" points="45.06 130.18 42.69 152.93 173.67 159.2 253.89 164.86 256.17 143.77 144.54 135.6 45.06 130.18"/>
    </g>
    <g>
      <path class="cls-5" d="M472.63,311.54l-.45-.66c-1.25-1.88-2.03-4.03-2.27-6.27l-1.36-13.07c.28-.02.49-.25.47-.53-.02-.28-.25-.49-.53-.47h-5.35c-.28-.02-.51.19-.53.47-.02.28.19.51.47.53h0l-1.36,13.06c-.23,2.24-1.01,4.4-2.27,6.27l-.44.66c-.73,1.07-1.11,2.34-1.11,3.64v27.67c0,1.16.94,2.1,2.1,2.1h11.63c1.16,0,2.1-.94,2.1-2.1h0v-27.68c0-1.29-.38-2.55-1.1-3.62Z"/>
      <rect class="cls-15" x="457.9" y="319.34" width="11.83" height="17.57"/>
      <path class="cls-5" d="M402.13,343.83l-.66-.44c-1.87-1.26-4.03-2.04-6.27-2.27l-13.06-1.36c-.03.24-.24.42-.48.42-.27,0-.49-.22-.49-.49v-5.34c-.02-.28.19-.51.47-.53.28-.02.51.19.53.47h0l13.06-1.36c2.24-.24,4.39-1.02,6.27-2.27l.66-.45c1.08-.72,2.34-1.11,3.64-1.11h27.6c1.17,0,2.11.94,2.11,2.11v11.63c0,1.16-.94,2.1-2.1,2.1h-27.64c-1.3,0-2.56-.39-3.64-1.11Z"/>
      <rect class="cls-15" x="409.96" y="329.11" width="17.57" height="11.83"/>
      <path class="cls-5" d="M451.29,311.54l-.44-.66c-1.26-1.87-2.04-4.03-2.27-6.27l-1.36-13.07c.28-.02.49-.25.47-.53-.02-.28-.25-.49-.53-.47h-5.35c-.28-.02-.51.19-.53.47-.02.28.19.51.47.53h0l-1.35,13.05c-.24,2.24-1.02,4.39-2.27,6.27l-.45.66c-.72,1.08-1.1,2.34-1.1,3.64v27.68c0,1.16.94,2.1,2.1,2.1h11.62c1.16,0,2.1-.94,2.1-2.1h0v-27.68c0-1.29-.39-2.55-1.11-3.62Z"/>
      <rect class="cls-15" x="439.32" y="319.34" width="11.83" height="17.57"/>
    </g>
  </g>
  <g id="Shadow">
    <path class="cls-10" d="M442.36,408.8c0,5.02-86.17,9.09-192.47,9.09s-192.47-4.07-192.47-9.09,86.17-9.09,192.47-9.09,192.47,4.07,192.47,9.09Z"/>
  </g>
  <g id="Footprints">
    <g>
      <g>
        <g>
          <path class="cls-17" d="M377.9,401.7l3.09,3.83s9.52.55,19.91,1.2c10.39.66,13.23-1.53,11.99-3.39-1.24-1.86-12.61-6.9-34.99-1.64Z"/>
          <path class="cls-17" d="M372.58,401.59l4.08,4.16s-14.1,2.19-15.58-.99c-1.48-3.17,11.5-3.17,11.5-3.17Z"/>
        </g>
        <g class="cls-21">
          <path class="cls-13" d="M377.9,401.7l3.09,3.83s9.52.55,19.91,1.2c10.39.66,13.23-1.53,11.99-3.39-1.24-1.86-12.61-6.9-34.99-1.64Z"/>
          <path class="cls-13" d="M372.58,401.59l4.08,4.16s-14.1,2.19-15.58-.99c-1.48-3.17,11.5-3.17,11.5-3.17Z"/>
        </g>
      </g>
      <g>
        <g>
          <path class="cls-17" d="M118.54,395.01l3.09,3.83s9.52.55,19.91,1.2c10.39.66,13.23-1.53,11.99-3.39-1.24-1.86-12.61-6.9-34.99-1.64Z"/>
          <path class="cls-17" d="M113.22,394.9l4.08,4.16s-14.1,2.19-15.58-.99c-1.48-3.17,11.5-3.17,11.5-3.17Z"/>
        </g>
        <g class="cls-21">
          <path class="cls-13" d="M118.54,395.01l3.09,3.83s9.52.55,19.91,1.2c10.39.66,13.23-1.53,11.99-3.39-1.24-1.86-12.61-6.9-34.99-1.64Z"/>
          <path class="cls-13" d="M113.22,394.9l4.08,4.16s-14.1,2.19-15.58-.99c-1.48-3.17,11.5-3.17,11.5-3.17Z"/>
        </g>
      </g>
      <g>
        <g>
          <path class="cls-17" d="M445.63,425.98l3.09-3.83s9.52-.55,19.91-1.2c10.39-.66,13.23,1.53,11.99,3.39-1.24,1.86-12.61,6.9-34.99,1.64Z"/>
          <path class="cls-17" d="M440.31,426.09l4.08-4.16s-14.1-2.19-15.58.99,11.5,3.17,11.5,3.17Z"/>
        </g>
        <g class="cls-21">
          <path class="cls-13" d="M445.63,425.98l3.09-3.83s9.52-.55,19.91-1.2c10.39-.66,13.23,1.53,11.99,3.39-1.24,1.86-12.61,6.9-34.99,1.64Z"/>
          <path class="cls-13" d="M440.31,426.09l4.08-4.16s-14.1-2.19-15.58.99,11.5,3.17,11.5,3.17Z"/>
        </g>
      </g>
      <g>
        <g>
          <path class="cls-17" d="M311.12,430.27l3.09-3.83s9.52-.55,19.91-1.2,13.23,1.53,11.99,3.39c-1.24,1.86-12.61,6.9-34.99,1.64Z"/>
          <path class="cls-17" d="M305.8,430.38l4.08-4.16s-14.1-2.19-15.58.99c-1.48,3.17,11.5,3.17,11.5,3.17Z"/>
        </g>
        <g class="cls-21">
          <path class="cls-13" d="M311.12,430.27l3.09-3.83s9.52-.55,19.91-1.2,13.23,1.53,11.99,3.39c-1.24,1.86-12.61,6.9-34.99,1.64Z"/>
          <path class="cls-13" d="M305.8,430.38l4.08-4.16s-14.1-2.19-15.58.99c-1.48,3.17,11.5,3.17,11.5,3.17Z"/>
        </g>
      </g>
      <g>
        <g>
          <path class="cls-17" d="M241.45,395.27l3.09,3.83s9.52.55,19.91,1.2c10.39.66,13.23-1.53,11.99-3.39-1.24-1.86-12.61-6.9-34.99-1.64Z"/>
          <path class="cls-17" d="M236.14,395.16l4.08,4.16s-14.1,2.19-15.58-.99c-1.48-3.17,11.5-3.17,11.5-3.17Z"/>
        </g>
        <g class="cls-21">
          <path class="cls-13" d="M241.45,395.27l3.09,3.83s9.52.55,19.91,1.2c10.39.66,13.23-1.53,11.99-3.39-1.24-1.86-12.61-6.9-34.99-1.64Z"/>
          <path class="cls-13" d="M236.14,395.16l4.08,4.16s-14.1,2.19-15.58-.99c-1.48-3.17,11.5-3.17,11.5-3.17Z"/>
        </g>
      </g>
      <g>
        <g>
          <path class="cls-17" d="M47.72,411.13l3.09,3.83s9.52.55,19.91,1.2c10.39.66,13.23-1.53,11.99-3.39-1.24-1.86-12.61-6.9-34.99-1.64Z"/>
          <path class="cls-17" d="M42.41,411.02l4.08,4.16s-14.1,2.19-15.58-.99c-1.48-3.17,11.5-3.17,11.5-3.17Z"/>
        </g>
        <g class="cls-21">
          <path class="cls-13" d="M47.72,411.13l3.09,3.83s9.52.55,19.91,1.2c10.39.66,13.23-1.53,11.99-3.39-1.24-1.86-12.61-6.9-34.99-1.64Z"/>
          <path class="cls-13" d="M42.41,411.02l4.08,4.16s-14.1,2.19-15.58-.99c-1.48-3.17,11.5-3.17,11.5-3.17Z"/>
        </g>
      </g>
      <g>
        <g>
          <path class="cls-17" d="M174.96,424.45l3.09-3.83s9.52-.55,19.91-1.2c10.39-.66,13.23,1.53,11.99,3.39-1.24,1.86-12.61,6.9-34.99,1.64Z"/>
          <path class="cls-17" d="M169.65,424.56l4.08-4.16s-14.1-2.19-15.58.99c-1.48,3.17,11.5,3.17,11.5,3.17Z"/>
        </g>
        <g class="cls-21">
          <path class="cls-13" d="M174.96,424.45l3.09-3.83s9.52-.55,19.91-1.2c10.39-.66,13.23,1.53,11.99,3.39-1.24,1.86-12.61,6.9-34.99,1.64Z"/>
          <path class="cls-13" d="M169.65,424.56l4.08-4.16s-14.1-2.19-15.58.99c-1.48,3.17,11.5,3.17,11.5,3.17Z"/>
        </g>
      </g>
    </g>
  </g>
  <g id="Speech_Bubble" data-name="Speech Bubble">
    <g>
      <path class="cls-17" d="M219.42,73.06c-6.62-3.17-8.99-12.37-5.71-18.94,3.28-6.57,11.01-10.2,18.34-9.84,7.33.36,14.17,4.21,19.4,9.36,5.24-6.44,15.82-7.61,22.35-2.47,6.42,5.05,5.35,15.4.53,22.03,5.65,2.76,9.4,9.5,8.02,15.73-1.7,7.67-10.79,12.76-18.22,10.2.02,9.93-8.87,19.03-18.8,19.25-9.93.22-19.2-8.48-19.62-18.4-7.58,3.52-17.78-1.46-19.68-9.59-1.9-8.13,5.04-17.11,13.39-17.32Z"/>
      <path class="cls-17" d="M266.82,110.15c0,2.33,1.89,4.22,4.22,4.22s4.22-1.89,4.22-4.22-1.89-4.22-4.22-4.22-4.22,1.89-4.22,4.22Z"/>
      <g class="cls-22">
        <path class="cls-13" d="M219.42,73.06c-6.62-3.17-8.99-12.37-5.71-18.94,3.28-6.57,11.01-10.2,18.34-9.84,7.33.36,14.17,4.21,19.4,9.36,5.24-6.44,15.82-7.61,22.35-2.47,6.42,5.05,5.35,15.4.53,22.03,5.65,2.76,9.4,9.5,8.02,15.73-1.7,7.67-10.79,12.76-18.22,10.2.02,9.93-8.87,19.03-18.8,19.25-9.93.22-19.2-8.48-19.62-18.4-7.58,3.52-17.78-1.46-19.68-9.59-1.9-8.13,5.04-17.11,13.39-17.32Z"/>
      </g>
      <path class="cls-14" d="M266.82,110.15c0,2.33,1.89,4.22,4.22,4.22s4.22-1.89,4.22-4.22-1.89-4.22-4.22-4.22-4.22,1.89-4.22,4.22Z"/>
      <path class="cls-17" d="M244.17,82.55c.59-1,1.45-2.1,2.58-3.31.83-.88,1.43-1.63,1.82-2.23.39-.6.58-1.29.58-2.05,0-1.09-.37-1.95-1.11-2.58-.74-.63-1.72-.95-2.95-.95s-2.23.29-3.14.86c-.92.57-1.69,1.38-2.31,2.41l-4.55-3.14c1.05-1.88,2.47-3.34,4.27-4.37,1.79-1.03,3.92-1.55,6.37-1.55,2.88,0,5.19.72,6.94,2.16,1.74,1.44,2.61,3.45,2.61,6.01,0,1.21-.17,2.27-.51,3.18-.34.91-.75,1.69-1.24,2.32-.49.63-1.12,1.36-1.9,2.19-.93.97-1.6,1.79-2.03,2.45-.43.66-.64,1.47-.64,2.41h-5.68c0-1.53.29-2.8.88-3.8ZM243.57,95.94c-.69-.7-1.03-1.55-1.03-2.55s.34-1.84,1.01-2.51c.68-.67,1.54-1.01,2.59-1.01s1.92.34,2.59,1.01c.68.67,1.01,1.51,1.01,2.51s-.34,1.85-1.03,2.55c-.69.7-1.55,1.05-2.58,1.05s-1.89-.35-2.57-1.05Z"/>
    </g>
  </g>
  <g id="Character">
    <g>
      <path class="cls-16" d="M156.64,210.01c.09.38.83,7.07.27,11.37-.55,4.3-2.69,13.18-4.04,13.04-1.36-.14-2.07-.46-2.24-3.71-.17-3.25,1.08-7.11-.28-7.13-1.37-.01-7.84,1.21-10.65,3.17-2.81,1.96-9.52,8.01-11.27,6.84-1.75-1.17-1.13-2.39.41-4.15s8.17-8.22,7.9-9.29-9.4,5.8-12.45,5.8c-2.59,0-1.28-2.99-.85-3.57,0,0-3.31,1.25-3.51-2.28-.1-1.88,6.21-4.8,12.8-8.5,0,0-5.87,1.95-9.45,3.73-.95.47-2.13.15-2.62-.79,0-.01-.01-.03-.02-.04-.65-1.31,1.76-2.74,4.55-4.46,2.79-1.71,17.11-3.34,19.07-5.51,1.96-2.17,5.05-9.13,5.05-9.13l10.81,9.45-3.5,5.13Z"/>
      <path class="cls-16" d="M358.01,228.46s11.99-8.75,13.19-9.11c1.2-.36,14.87,7.43,14.63,10.55-.24,3.12-2.28,3.6-2.28,3.6,0,0,1.68,3.12-1.8,4.8,0,0,2.28,2.16-.6,4.32-2.88,2.16-11.15,1.8-10.67,0,0,0-6.86,3.99-10.7,3.46l-5.01-16.29,3.24-1.32Z"/>
      <path class="cls-12" d="M381.35,237.28c-1.95.31-3.96.24-5.88-.23-1.06-.26-3.27-.89-2.71-2.43.63-1.76,3.09-1.55,4.56-1.44,1.99.16,3.94.61,5.82,1.29.91.33,1.3-1.12.4-1.45-1.8-.65-3.67-1.08-5.58-1.28-1.7-.18-3.74-.35-5.23.66-1.29.87-1.99,2.54-1.2,3.97.73,1.33,2.38,1.85,3.75,2.17,2.13.49,4.32.53,6.47.18.95-.15.55-1.6-.4-1.45h0Z"/>
      <path class="cls-12" d="M371.25,242.81c-.35-.94-.33-1.94.17-2.81.06-.1.12-.2.19-.3.03-.04.06-.09.09-.13-.06.07.04-.04.06-.06.15-.18.33-.34.51-.49.27-.22.72-.44,1.09-.55s.63-.53.52-.92-.53-.64-.92-.52c-1.18.35-2.23,1.14-2.83,2.22-.67,1.19-.8,2.68-.32,3.97.14.38.51.64.92.52.36-.1.67-.54.52-.92h0Z"/>
      <g>
        <path class="cls-9" d="M362.72,235.5l18.57-16.23,2.92,3.74-21.95,20h0c-1.96-2.19-1.75-5.57.46-7.51Z"/>
        <ellipse class="cls-9" cx="395.87" cy="206.5" rx="21.07" ry="7.37" transform="translate(-37.99 311.95) rotate(-41.21)"/>
        <path class="cls-9" d="M394.37,204.32c-8.75,7.66-13.67,16.36-10.99,19.42s11.95-.67,20.7-8.34,13.67-16.36,10.99-19.42c-2.68-3.06-11.95.67-20.7,8.34Z"/>
        <polygon class="cls-9" points="379.94 220.28 383.38 223.74 415.07 195.99 411.33 192.34 379.94 220.28"/>
        <path class="cls-17" d="M382.94,219.76c-.56,0-1.3-.09-1.65-.49-.61-.69-.41-2.83,1.41-6.04,1.98-3.51,5.33-7.41,9.43-11,7.09-6.21,13.48-8.99,16.66-8.99.56,0,1.29.09,1.65.49.61.69.41,2.83-1.41,6.04-1.98,3.51-5.33,7.41-9.43,11-7.09,6.21-13.48,8.99-16.66,8.99h0Z"/>
        <path class="cls-20" d="M382.94,219.76c-.56,0-1.3-.09-1.65-.49-.61-.69-.41-2.83,1.41-6.04,1.98-3.51,5.33-7.41,9.43-11,7.09-6.21,13.48-8.99,16.66-8.99.56,0,1.29.09,1.65.49.61.69.41,2.83-1.41,6.04-1.98,3.51-5.33,7.41-9.43,11-7.09,6.21-13.48,8.99-16.66,8.99h0Z"/>
      </g>
      <g>
        <path class="cls-16" d="M375.05,221.65c2.35,2.55,4.24,5.54,5.49,8.79.28.73.53,1.5.46,2.27-.07.78-.54,1.57-1.29,1.79-.88.26-1.78-.32-2.49-.91-1.93-1.59-3.65-3.44-5.08-5.49,0,0-2.86,4.33-13.66,1.98"/>
        <path class="cls-12" d="M374.52,222.18c2.36,2.59,4.74,5.93,5.61,9.38.22.88.14,2.52-1.2,2.19-.89-.22-1.71-1.13-2.36-1.73-1.41-1.3-2.66-2.74-3.77-4.3-.33-.47-.96-.49-1.3,0-.09.13.13-.14-.03.04-.14.15-.28.29-.43.42-.57.48-1.25.84-1.95,1.1-3.29,1.24-7.06.79-10.4.08-.94-.2-1.34,1.25-.4,1.45,3.66.78,7.78,1.25,11.36-.14,1.15-.45,2.44-1.12,3.15-2.19h-1.3c1.38,1.94,7.66,10.25,9.97,5.33.95-2.02-.55-4.6-1.46-6.38-1.18-2.29-2.69-4.39-4.42-6.3-.65-.72-1.71.35-1.06,1.06h0Z"/>
      </g>
      <path class="cls-17" d="M299.94,258.58c-.2-.78-13.1-81.73-4.71-88.44,8.39-6.71,17.46,11.52,20.22,31.33,2.76,19.82,4.5,28.05,4.5,28.05.3.66,36.68-8.5,38.28-3.52,1.6,4.97,4.98,25.02,1.58,25.32-3.43.31-58.33,13.26-59.86,7.26Z"/>
      <g>
        <polygon class="cls-9" points="96.8 360.79 98.46 374.64 130.46 377.27 128.8 363.44 96.8 360.79"/>
        <path class="cls-9" d="M105.26,376.58l-.48-5.19c-.11-1.17-.78-2.23-1.75-2.87-4.19-2.77-2.92-5.1.46-8.57.04-2.08-2.28-2.51-2.91-2.64l-13.87-3.1c-1.16-.27-2.27.48-2.49,1.68-.04.21-.05.43-.02.65.58,6.3.86,9.29,1.58,17.13l2.21,24c.6,6.54,7.04,7.53,7.37,4.8,1.45-12.27,4.07-21.04,7.1-24.99.53-.73,1.03-.04,2.79-.9Z"/>
        <path class="cls-17" d="M102.48,380.21c-.45-1.95-1.73-3.7-3.47-4.7-.34-.2-.84-.09-1.03.27s-.09.82.27,1.03c.18.11.36.22.54.34.05.04.1.08.15.11-.06-.04-.05-.04,0,0,.08.07.16.14.24.21.16.14.31.3.46.45.07.08.14.16.21.24.01.01.14.18.04.05.03.04.07.09.1.13.25.35.48.72.66,1.12.02.05.04.1.07.15-.04-.1-.01-.03.01.03.04.1.08.2.11.3.07.22.13.43.19.66.09.38.55.64.92.52.4-.13.62-.51.52-.92h0Z"/>
        <path class="cls-17" d="M100.45,383.57c-.45-1.95-1.73-3.7-3.47-4.7-.34-.2-.84-.09-1.03.27s-.09.82.27,1.03c.18.11.36.22.54.34.05.04.1.08.15.11-.06-.04-.05-.04,0,0,.08.07.16.14.24.21.16.14.31.3.46.45.07.08.14.16.21.24.01.01.14.18.04.05.03.04.07.09.1.13.25.35.48.72.66,1.12.02.05.04.1.07.15-.04-.1-.01-.03.01.03.04.1.08.2.11.3.07.22.13.43.19.66.09.38.55.64.92.52.4-.13.62-.51.52-.92h0Z"/>
        <path class="cls-17" d="M98.87,387.7c-.45-1.95-1.73-3.7-3.47-4.7-.34-.2-.84-.09-1.03.27s-.09.82.27,1.03c.18.11.36.22.54.34.05.04.1.08.15.11-.06-.04-.05-.04,0,0,.08.07.16.14.24.21.16.14.31.3.46.45.07.08.14.16.21.24.01.01.14.18.04.05.03.04.07.09.1.13.25.35.48.72.66,1.12.02.05.04.1.07.15-.04-.1-.01-.03.01.03.04.1.08.2.11.3.07.22.13.43.19.66.09.38.55.64.92.52.4-.13.62-.51.52-.92h0Z"/>
      </g>
      <g>
        <polygon class="cls-9" points="296.98 399.04 310.93 399.07 317.43 367.63 303.49 367.6 296.98 399.04"/>
        <path class="cls-9" d="M313.75,392.02l-5.21-.16c-1.18-.04-2.31.5-3.06,1.39-3.25,3.82-5.42,2.28-8.45-1.5-2.06-.29-2.77,1.96-2.98,2.57l-4.76,13.39c-.41,1.12.2,2.31,1.36,2.67.21.06.42.1.64.1,6.33.19,9.32.28,17.2.51l24.09.72c6.57.2,8.33-6.07,5.66-6.73-12-2.92-20.4-6.59-23.94-10.08-.66-.61.08-1.03-.56-2.88Z"/>
        <path class="cls-17" d="M317.13,395.21c-2.1.22-3.98,1.27-5.25,2.96-.24.32-.06.85.27,1.03.39.21.77.07,1.03-.27.08-.11-.02.02.03-.04.03-.04.06-.07.09-.11.07-.08.14-.16.21-.24.15-.15.3-.3.46-.44.04-.03.07-.06.11-.09.01-.01.15-.13.09-.07-.05.04.06-.04.07-.05.05-.04.1-.07.15-.1.18-.12.36-.24.55-.34.18-.1.36-.19.54-.27.04-.02.15-.06.05-.02.04-.02.09-.04.13-.05.1-.04.2-.07.3-.11.2-.07.41-.12.62-.17.11-.02.21-.04.32-.06.05,0,.09-.02.14-.02-.16.02.07,0,.09,0,.39-.04.77-.32.75-.75-.02-.37-.33-.79-.75-.75h0Z"/>
        <path class="cls-17" d="M320.22,397.63c-2.1.22-3.98,1.27-5.25,2.96-.24.32-.06.85.27,1.03.39.21.77.07,1.03-.27.08-.11-.02.02.03-.04.03-.04.06-.07.09-.11.07-.08.14-.16.21-.24.15-.15.3-.3.46-.44.04-.03.07-.06.11-.09.01-.01.15-.13.09-.07-.05.04.06-.04.07-.05.05-.04.1-.07.15-.1.18-.12.36-.24.55-.34.18-.1.36-.19.54-.27.04-.02.15-.06.05-.02.04-.02.09-.04.13-.05.1-.04.2-.07.3-.11.2-.07.41-.12.62-.17.11-.02.21-.04.32-.06.05,0,.09-.02.14-.02-.16.02.07,0,.09,0,.39-.04.77-.32.75-.75-.02-.37-.33-.79-.75-.75h0Z"/>
        <path class="cls-17" d="M324.12,399.7c-2.1.22-3.98,1.27-5.25,2.96-.24.32-.06.85.27,1.03.39.21.77.07,1.03-.27.08-.11-.02.02.03-.04.03-.04.06-.07.09-.11.07-.08.14-.16.21-.24.15-.15.3-.3.46-.44.04-.03.07-.06.11-.09.01-.01.15-.13.09-.07-.05.04.06-.04.07-.05.05-.04.1-.07.15-.1.18-.12.36-.24.55-.34.18-.1.36-.19.54-.27.04-.02.15-.06.05-.02.04-.02.09-.04.13-.05.1-.04.2-.07.3-.11.2-.07.41-.12.62-.17.11-.02.21-.04.32-.06.05,0,.09-.02.14-.02-.16.02.07,0,.09,0,.39-.04.77-.32.75-.75-.02-.37-.33-.79-.75-.75h0Z"/>
      </g>
      <path class="cls-17" d="M304.75,171.45s6.69,25.81,5,39.52c-1.48,12.01-15.01,93.11-17.81,122.96-2.8,29.85-3.01,32.86-6.81,33.06-3.81.2-38.67,1.8-39.47,0-.8-1.8-1-17.43-1-17.43,0,0-.4,19.63-7.81,17.43-7.41-2.2-35.86-6.41-36.86-6.61-1-.2,13.02-152.67,13.02-152.67l62.26-52.8c12.04,5.7,26.71,11.63,29.49,16.53Z"/>
      <g>
        <path class="cls-17" d="M351.76,139.2s-17.52,3.26-22.59,2.2c-5.62-1.17-34.54-9.81-37.8-12.75s-7.96-10.15-7.96-10.15l16.97.84s36.11,12.94,36.31,12.99c.19.05,15.07,6.87,15.07,6.87Z"/>
        <path class="cls-4" d="M351.76,139.2s-17.52,3.26-22.59,2.2c-5.62-1.17-34.54-9.81-37.8-12.75s-7.96-10.15-7.96-10.15h15.32l41.28,10.86,11.76,9.84Z"/>
      </g>
      <g>
        <path class="cls-16" d="M297.82,175.45s-.07-4.85,1.63-8.24c.89-1.94,2.27-3.62,4-4.88.93-.73,1.92-1.39,2.94-1.98l-6.92-26.87c-4.29,8.54-11.8,24.53-21.41,25.51,0,0,5.67,11.85,10.73,16.2,5.07,4.34,9.03.26,9.03.26Z"/>
        <path class="cls-2" d="M297.09,143.54c-7.31,8.37-1.25,19.07,2.35,23.7.89-1.94,2.27-3.62,4-4.88l-6.36-18.82Z"/>
        <path class="cls-9" d="M336.21,124.15c9.35,5.87-.76,8.26,6.75,17.64-4.79,5.44-16.38,5.63-15.57.26.89-5.9,1.1-22.85,8.82-17.9Z"/>
        <path class="cls-16" d="M301.21,124.65c-5.29,12.21-8.52,18.98-5.45,28.16,4.62,13.81,21.96,16.1,30.9,5.76,8.05-9.3,15.34-27.7,5.79-38.44-9.41-10.58-25.95-7.69-31.24,4.52Z"/>
        <path class="cls-9" d="M315.82,135.54c-.62,1.21-.46,2.52.36,2.94.82.41,1.98-.23,2.6-1.44.62-1.21.46-2.52-.36-2.94-.82-.41-1.98.23-2.6,1.44Z"/>
        <path class="cls-9" d="M327.47,142.65c-.62,1.21-.46,2.52.36,2.94.82.41,1.98-.23,2.6-1.44.62-1.21.46-2.52-.36-2.94-.82-.41-1.98.23-2.6,1.44Z"/>
        <path class="cls-18" d="M325.26,140.84s.86,8.04.87,11.14c-2.5.63-5.12-1.61-5.12-1.61l4.25-9.53Z"/>
        <path class="cls-9" d="M317.58,127.88c0,.23.13.45.34.57,2.52,1.42,2.77,3.81,2.77,3.83.03.36.35.63.7.61.35-.03.61-.34.57-.69-.01-.13-.33-3.12-3.45-4.88-.31-.18-.7-.06-.86.25-.05.1-.08.21-.07.32Z"/>
        <path class="cls-9" d="M337.62,140.47c.12-.01.24-.06.35-.14.28-.22.32-.62.1-.9-2.27-2.75-5.26-2.47-5.39-2.47-.36.04-.62.35-.58.7.04.35.35.6.71.57.12-.02,2.43-.21,4.25,2,.14.17.36.25.57.24Z"/>
        <path class="cls-9" d="M340.33,133.54c-9.34-.61-16.29-12.74-16.29-12.74-3.82,3.74-12.31,1.74-12.31,1.74-.78,2.37-1.88,4.63-3.25,6.72-1.98,2.45-4.3,4.62-6.88,6.43-.55-.74-1.16-1.31-1.78-1.79l-3.92,8.95c-4.5.86-9.39-.76-12.48-4.14,2.22-.06,4.42-.69,6.33-1.81-3.36-1.26-6.26-3.7-8.07-6.79,2.14.82,4.45,1.65,6.67,1.09,1.2-.3,2.19-1.58,2.88-3.23,7.82-20.95,19.11-20.04,19.11-20.04,0,0,14.86-6.04,22.8,1.33s4.65,7.61,6.18,15.07c1.53,7.46,1.02,9.22,1.02,9.22Z"/>
        <g>
          <path class="cls-16" d="M291.39,132.03c-.58,3.54.56,7.06,2.38,9.47,2.72,3.62,6.04.46,7.6-3.44,1.4-3.51,2.48-8.11-1.37-10.36-3.79-2.21-7.94.28-8.61,4.33Z"/>
          <path class="cls-1" d="M295.83,130.19c.85-.45,1.98-.2,2.72.44.74.64,1.15,1.6,1.31,2.55.2,1.14.09,2.33-.31,3.41"/>
        </g>
        <path class="cls-9" d="M311.56,150.09c.13.03.25.06.37.1.06.02.12.04.18.06.02,0,.18.07.09.03-.09-.04.1.04.11.05.05.02.1.05.14.07.11.06.22.12.33.19.05.03.11.07.16.11.03.02.18.13.05.04.09.07.18.15.27.23.18.17.35.35.51.54.1.12-.06-.09.04.05.03.04.06.09.09.13.07.1.13.2.19.3.06.11.12.23.18.34.03.06.05.12.08.18-.05-.12,0,0,.02.06.08.22.15.45.19.68.01.06.02.13.03.19-.03-.18,0,.03,0,.06.01.13.02.26.02.39,0,.39.34.77.75.75s.75-.33.75-.75c-.01-2.42-1.8-4.7-4.17-5.24-.38-.09-.83.12-.92.52-.09.38.11.83.52.92h0Z"/>
      </g>
      <g>
        <path class="cls-4" d="M340.97,138.85s-14.53-7.07-23.5-9.32c-8.96-2.25-24.76-5.21-24.76-5.21l1.81-3.3s37.68,5.92,37.82,6.04,7.14,5.44,7.14,5.44l1.48,6.35Z"/>
        <g>
          <path class="cls-17" d="M341.12,122.92s.79-20.65-6.83-22.9c-7.62-2.26-9.65,4.49-13.77.19s-5.37-5.82-7.91-4.6c-2.54,1.22-7.31,6.35-11.42,15.54l39.93,11.78Z"/>
          <path class="cls-17" d="M351.71,139.53l-10.6-16.61-39.93-11.78s-18.21,7.12-17.73,7.59c.48.46,16.93,2.64,36.59,9.09,19.67,6.45,31.66,11.71,31.66,11.71Z"/>
          <path class="cls-4" d="M341.1,119.02s-28.58-11.06-38.17-11.48l-1.74,3.6,39.93,11.78c.04-1.13.02-2.47-.01-3.9Z"/>
        </g>
        <g class="cls-3">
          <path class="cls-6" d="M326.78,100.79c-2.89,1.6-6.46,1.78-9.48.45-.44-.19-.82.45-.38.65,3.28,1.45,7.1,1.29,10.24-.45.42-.23.04-.88-.38-.65h0Z"/>
        </g>
        <g class="cls-3">
          <path class="cls-6" d="M337.64,109.37c-.86,2.27-.71,4.84.36,7.01.21.43.86.05.65-.38-.99-2-1.07-4.35-.28-6.44.17-.45-.55-.65-.72-.2h0Z"/>
        </g>
      </g>
      <path class="cls-4" d="M243.68,244.19l54.44-45.66s-2.19,33.48-5.73,50.72c-3.54,17.23-13.19,117.88-13.19,117.88l-.28.15c-11.14.46-32.63,1.13-33.25-.28-.8-1.8-1-17.43-1-17.43,0,0-.4,19.63-7.81,17.43-3.26-.97-10.61-2.33-17.89-3.56l24.73-119.24Z"/>
      <path class="cls-9" d="M255.02,250.77c1.01-.15,58.3,14.62,81.83,26.24,6.26,3.09,10.59,11.61,10.3,19.3-.34,9.1-22.92,93.35-22.92,93.35-4.06.37-33.5-6.63-33.5-6.63,0,0,17.39-70.73,15.54-76.65-1.84-5.92-84.54-17.62-87.49-24.63-2.95-7.01-11.87-52.23-11.87-52.23l52.34,12.16-4.23,9.09Z"/>
      <path class="cls-9" d="M243.68,250.82s-16.74,127.46-26.57,137.76c-9.23,9.66-104.78-2.05-104.78-2.05l4.15-29.63s71.44,8.8,73.29,2.16c1.84-6.64-7.11-87.89-4.16-99.38s21.32-30.16,21.32-30.16l36.76,21.31Z"/>
      <path class="cls-8" d="M298.71,168.57c.2.6,12.99,12.78,4.88,25.46-2.06,3.22-39.54,50.04-45.06,52.64-5.52,2.6-43.41-9.72-46.9-14.31-3.49-4.6,60.71-79.48,60.71-79.48l10.99,4.07,4.8,15.51,10.58-3.89Z"/>
      <polygon class="cls-17" points="288.37 176.12 288.95 183.44 285.54 185.61 281.33 185.61 279.53 178.92 285.28 174.79 288.37 176.12"/>
      <path class="cls-4" d="M268.21,254.04s.59,10.3,2.54,12.56c1.94,2.26,9.31,6.33,9.31,6.33l-.52-15.76-11.33-3.13Z"/>
      <path class="cls-17" d="M285.54,181c0,.88,2.95,70.94,3.01,74.85.07,5.22-8.4,16.81-8.4,16.81,0,0-6.82-7.76-7.03-17.7-.2-9.94,9.02-73.97,9.02-73.97h3.41Z"/>
      <g class="cls-23">
        <path class="cls-9" d="M270.88,162.4l7.43,17.4,9.75-7.01,1.04,10.93c3.73-2.07,6.55-3.73,9.95-6.3,0,0-10.25,9.16-10.72,8.19-.47-.97-.98-10.89-.98-10.89,0,0-10.12,7.73-10.52,6.74-.4-.99-5.95-19.05-5.95-19.05Z"/>
      </g>
      <path class="cls-7" d="M186.29,253.28c-.08-.33,10.07-11.54,10.24-12.19.16-.65,37.94-25.35,37.94-25.35,0,0-31.77,36.4-34.54,43.39-2.77,6.99-2.27,13.49-2.02,22.99.24,9.51,3.49,71.01,1.62,79.95-1.87,8.94-12.42,6.21-12.42,6.21,0,0-14.55-42.12-14.88-42.2-.32-.08,14.14-72.48,14.06-72.8Z"/>
      <path class="cls-17" d="M281.05,156.1s-17.82-10.82-27.92-16.6c-5.05-2.89-80.11,91.37-85.21,100.97-8.77,16.49-16.94,115.34-16.94,115.34,0,0,33.32,18.96,43.56,11.48,10.24-7.48-8.66-100.75.39-111.42s29.93-27.81,42.53-42.47c12.6-14.66,43.59-57.29,43.59-57.29Z"/>
      <path class="cls-17" d="M177.78,149.2c.7-.39,69.26-16.81,76.5-8.88,7.24,7.93-6.48,25.79-26.1,29.71-1.67.33-34.68,2.65-35.23,3.11-1.95,1.64-26.54,38.14-31.4,40.05-4.86,1.92-20.61-9.49-19.97-12.83.65-3.34,29.78-47.56,36.2-51.17Z"/>
      <polygon class="cls-4" points="238.28 288.86 241.1 272.06 247.31 265.3 243.26 273.88 242.32 289.96 238.28 288.86"/>
      <g class="cls-23">
        <path class="cls-6" d="M252.68,141.78c-.23,6.59-2.98,12.96-7.67,17.62s-11.07,7.4-17.64,7.89c-.96.07-.96,1.57,0,1.5,6.97-.52,13.71-3.39,18.7-8.33s7.86-11.69,8.11-18.68c.03-.97-1.47-.96-1.5,0h0Z"/>
      </g>
      <g class="cls-23">
        <path class="cls-6" d="M169.84,203.03c-2.07-2.18-4.47-4.07-6.9-5.82s-5.03-3.47-7.81-4.67c-.39-.17-.78-.1-1.03.27-1.26,1.91-2.52,3.83-3.77,5.74-.24.37-.04.79.27,1.03,4.6,3.54,9.27,7.12,13.43,11.17.69.67,1.75-.39,1.06-1.06-4.25-4.14-9.03-7.79-13.73-11.41l.27,1.03c1.26-1.91,2.52-3.83,3.77-5.74l-1.03.27c2.7,1.17,5.2,2.81,7.58,4.51s4.78,3.59,6.83,5.75c.67.7,1.73-.36,1.06-1.06h0Z"/>
      </g>
      <path class="cls-9" d="M154.2,198.05c-.14.75.35,1.48,1.1,1.62.75.15,1.48-.35,1.62-1.1.14-.75-.35-1.48-1.1-1.62-.75-.14-1.48.35-1.62,1.1Z"/>
      <g class="cls-23">
        <path class="cls-6" d="M240.41,209.87c1.04-4.21-.29-11.35.51-15.6.8-4.25,2.11-8.52,4.83-12.02,2.72-3.5,7.05-6.15,11.8-6.21-.63-2.87-1.27-5.76-1.3-8.68-.04-2.92.57-5.89,2.24-8.34,3.02-4.39,8.16-6.97,13.7-8.27l8.86,5.34-40.64,53.77Z"/>
      </g>
      <path class="cls-17" d="M304.75,171.45c4.76,7.53,2.41,18.2-2.97,25.29,4.12,5.97,4.83,13.83,3.21,20.9s-5.79,11.84-9.95,17.79c0,0,3.51-41.12,3.63-43.09.12-1.97-.02-24.27.05-23.77.08.5,1.91-1.52,1.91-1.52,0,0,2.88,2.42,4.13,4.4Z"/>
      <g class="cls-23">
        <path class="cls-6" d="M304.75,171.45c4.76,7.53,2.41,18.2-2.97,25.29,4.12,5.97,4.83,13.83,3.21,20.9s-6.23,11.84-10.39,17.79c0,0,.92-7.28,1.74-15.94,1.12-11.78,2.25-26.02,2.32-27.15.12-1.97-.02-24.27.05-23.77.08.5,1.91-1.52,1.91-1.52,0,0,2.88,2.42,4.13,4.4Z"/>
      </g>
      <g class="cls-23">
        <path class="cls-6" d="M302.46,261.43c2.22-15.79,5.47-31.41,7.78-47.18.62-4.25,1.17-8.51,1.61-12.78.1-.96-1.4-.95-1.5,0-1.6,15.72-4.72,31.24-7.34,46.81-.71,4.24-1.39,8.49-1.99,12.75-.13.94,1.31,1.35,1.45.4h0Z"/>
      </g>
      <g class="cls-23">
        <path class="cls-6" d="M200.3,238.64c-6.49,2.66-13.73,2.86-20.36.54-.91-.32-1.31,1.13-.4,1.45,6.84,2.4,14.45,2.21,21.16-.54.88-.36.5-1.81-.4-1.45h0Z"/>
      </g>
      <path class="cls-12" d="M123.28,223.27c2.84-2.9,6.29-5.17,10.11-6.57.9-.33.51-1.78-.4-1.45-4.06,1.5-7.74,3.86-10.77,6.96-.68.69.38,1.75,1.06,1.06h0Z"/>
      <g class="cls-23">
        <path class="cls-6" d="M317.5,298.81c-4.19,1.52-8.38,3.04-12.57,4.56-.9.33-.51,1.78.4,1.45,4.19-1.52,8.38-3.04,12.57-4.56.9-.33.51-1.78-.4-1.45h0Z"/>
      </g>
      <g class="cls-23">
        <path class="cls-6" d="M315.92,307.44c-2.8-1-5.67-1.77-8.6-2.31-.4-.07-.81.11-.92.52-.1.36.12.85.52.92,2.92.54,5.8,1.31,8.6,2.31.38.14.82-.15.92-.52.11-.42-.14-.79-.52-.92h0Z"/>
      </g>
      <g class="cls-23">
        <path class="cls-6" d="M318.96,229.47c-2.29,5.86-4.96,11.56-7.98,17.08-.46.85.83,1.6,1.3.76,3.09-5.63,5.8-11.46,8.14-17.44.35-.9-1.1-1.29-1.45-.4h0Z"/>
      </g>
      <g class="cls-23">
        <path class="cls-6" d="M313,206.52c-1.17,1.36-2.35,2.73-3.52,4.09-.26.3-.31.77,0,1.06.28.26.79.32,1.06,0,1.17-1.36,2.35-2.73,3.52-4.09.26-.3.31-.77,0-1.06-.28-.26-.79-.32-1.06,0h0Z"/>
      </g>
      <path class="cls-20" d="M402.22,195.26s-1.15,5.65-4.72,9.38c-3.57,3.73-3.12,10.21-3.12,10.21l-3.78,2.33s-2.64-.15,0-6.78,5.54-3.22,6.9-8.21c1.36-4.99.58-4.52.58-4.52,0,0,3.08-2.44,4.14-2.4Z"/>
      <g class="cls-23">
        <path class="cls-6" d="M251.84,309.01c-1.64,11.37-3,22.78-4.06,34.22-.09.96,1.41.95,1.5,0,1.05-11.3,2.38-22.58,4-33.82.14-.94-1.31-1.35-1.45-.4h0Z"/>
      </g>
      <g class="cls-23">
        <path class="cls-6" d="M263.74,308.63c-1.73,19.4-3.47,38.8-5.2,58.21-.09.96,1.41.96,1.5,0,1.73-19.4,3.47-38.8,5.2-58.21.09-.96-1.41-.96-1.5,0h0Z"/>
      </g>
    </g>
  </g>
</svg>